<?xml version="1.0" encoding="UTF-8" standalone="no"?>
<!-- Created with Inkscape (http://www.inkscape.org/) -->

<svg
   xmlns:dc="http://purl.org/dc/elements/1.1/"
   xmlns:cc="http://creativecommons.org/ns#"
   xmlns:rdf="http://www.w3.org/1999/02/22-rdf-syntax-ns#"
   xmlns:svg="http://www.w3.org/2000/svg"
   xmlns="http://www.w3.org/2000/svg"
   version="1.1"
   width="173.403"
   height="265.00003"
   id="svg2">
  <defs
     id="defs4" />
  <metadata
     id="metadata7">
    <rdf:RDF>
      <cc:Work
         rdf:about="">
        <dc:format>image/svg+xml</dc:format>
        <dc:type
           rdf:resource="http://purl.org/dc/dcmitype/StillImage" />
        <dc:title></dc:title>
      </cc:Work>
    </rdf:RDF>
  </metadata>
  <g
     transform="translate(1.9137241e-6,-677.36212)"
     id="layer1">
    <g
       transform="scale(1.0038351,0.99617957)"
       id="text2987"
       style="font-size:39.98244858px;font-style:normal;font-weight:normal;line-height:125%;letter-spacing:0px;word-spacing:0px;fill:#000000;fill-opacity:1;stroke:none;font-family:Sans" />
    <g
       transform="scale(0.9999986,1.0000014)"
       id="text2991"
       style="font-size:39.99994278px;font-style:normal;font-weight:normal;line-height:125%;letter-spacing:0px;word-spacing:0px;fill:#000000;fill-opacity:1;stroke:none;font-family:Sans" />
    <g
       transform="scale(1.4594074,0.68520962)"
       id="text2995"
       style="font-size:58.3193512px;font-style:normal;font-weight:normal;line-height:125%;letter-spacing:0px;word-spacing:0px;fill:#000000;fill-opacity:1;stroke:none;font-family:Sans">
      <path
         d="m -1.3113022e-6,988.5473 95.9293433113022,0 0,29.1882 -95.9293433113022,0 0,-29.1882 M 41.181097,1109.3119 l 16.895991,0 0,235.6929 60.808832,0 0,30.2855 -77.704823,0 0,-265.9784 M 5.2272843e-7,1046.9237 l 17.03732147727157,0 0,160.8944 c -3.1e-5,28.3828 2.433869,48.842 7.301709,61.3776 4.867763,12.4175 12.756958,18.6262 23.66761,18.6261 10.854575,10e-5 18.715794,-6.2086 23.583683,-18.6261 4.867716,-12.5356 7.301615,-32.9948 7.301711,-61.3776 l 0,-160.8944 17.037322,0 0,165.3292 c -1.11e-4,34.5324 -4.056618,60.6089 -12.169517,78.2298 -8.057149,17.621 -19.974871,26.4314 -35.753199,26.4314 -15.834405,0 -27.808078,-8.8104 -35.921052,-26.4314 C 4.0285108,1272.8618 -1.4416401e-5,1246.7853 5.2272843e-7,1212.2529 l 0,-165.3292"
         id="path3011"
         style="font-size:364.49591064px" />
    </g>
  </g>
</svg>
